<?xml version="1.0" encoding="UTF-8" standalone="no"?>
<svg
   xmlns:dc="http://purl.org/dc/elements/1.1/"
   xmlns:cc="http://creativecommons.org/ns#"
   xmlns:rdf="http://www.w3.org/1999/02/22-rdf-syntax-ns#"
   xmlns:svg="http://www.w3.org/2000/svg"
   xmlns="http://www.w3.org/2000/svg"
   id="svg8"
   version="1.1"
   viewBox="0 0 41.058332 10.79375"
   height="40.79528"
   width="155.18111">
  <defs
     id="defs2">
    <filter
       id="filter2505"
       style="color-interpolation-filters:sRGB">
      <feColorMatrix
         id="feColorMatrix2495"
         in="SourceGraphic"
         type="luminanceToAlpha"
         result="result2" />
      <feDiffuseLighting
         id="feDiffuseLighting2499"
         surfaceScale="15"
         result="result1"
         diffuseConstant="0.5"
         in="result2"
         lighting-color="#ffffff">
        <feDistantLight
           id="feDistantLight2497"
           elevation="10"
           azimuth="225" />
      </feDiffuseLighting>
      <feComposite
         id="feComposite2501"
         in2="SourceGraphic"
         k3="0.8"
         k2="1"
         operator="arithmetic"
         result="result9"
         k1="0"
         k4="0" />
      <feComposite
         id="feComposite2503"
         in="result9"
         operator="in"
         result="result7"
         in2="SourceGraphic" />
    </filter>
    <filter
       id="filter2517"
       style="color-interpolation-filters:sRGB">
      <feColorMatrix
         id="feColorMatrix2507"
         in="SourceGraphic"
         type="luminanceToAlpha"
         result="result2" />
      <feDiffuseLighting
         id="feDiffuseLighting2511"
         surfaceScale="15"
         result="result1"
         diffuseConstant="0.5"
         in="result2"
         lighting-color="#ffffff">
        <feDistantLight
           id="feDistantLight2509"
           elevation="10"
           azimuth="225" />
      </feDiffuseLighting>
      <feComposite
         id="feComposite2513"
         in2="SourceGraphic"
         k3="0.8"
         k2="1"
         operator="arithmetic"
         result="result9"
         k1="0"
         k4="0" />
      <feComposite
         id="feComposite2515"
         in="result9"
         operator="in"
         result="result7"
         in2="SourceGraphic" />
    </filter>
    <filter
       id="filter2529"
       style="color-interpolation-filters:sRGB">
      <feColorMatrix
         id="feColorMatrix2519"
         in="SourceGraphic"
         type="luminanceToAlpha"
         result="result2" />
      <feDiffuseLighting
         id="feDiffuseLighting2523"
         surfaceScale="15"
         result="result1"
         diffuseConstant="0.5"
         in="result2"
         lighting-color="#ffffff">
        <feDistantLight
           id="feDistantLight2521"
           elevation="10"
           azimuth="225" />
      </feDiffuseLighting>
      <feComposite
         id="feComposite2525"
         in2="SourceGraphic"
         k3="0.8"
         k2="1"
         operator="arithmetic"
         result="result9"
         k1="0"
         k4="0" />
      <feComposite
         id="feComposite2527"
         in="result9"
         operator="in"
         result="result7"
         in2="SourceGraphic" />
    </filter>
    <filter
       id="filter2541"
       style="color-interpolation-filters:sRGB">
      <feColorMatrix
         id="feColorMatrix2531"
         in="SourceGraphic"
         type="luminanceToAlpha"
         result="result2" />
      <feDiffuseLighting
         id="feDiffuseLighting2535"
         surfaceScale="15"
         result="result1"
         diffuseConstant="0.5"
         in="result2"
         lighting-color="#ffffff">
        <feDistantLight
           id="feDistantLight2533"
           elevation="10"
           azimuth="225" />
      </feDiffuseLighting>
      <feComposite
         id="feComposite2537"
         in2="SourceGraphic"
         k3="0.8"
         k2="1"
         operator="arithmetic"
         result="result9"
         k1="0"
         k4="0" />
      <feComposite
         id="feComposite2539"
         in="result9"
         operator="in"
         result="result7"
         in2="SourceGraphic" />
    </filter>
    <filter
       id="filter2553"
       style="color-interpolation-filters:sRGB">
      <feColorMatrix
         id="feColorMatrix2543"
         in="SourceGraphic"
         type="luminanceToAlpha"
         result="result2" />
      <feDiffuseLighting
         id="feDiffuseLighting2547"
         surfaceScale="15"
         result="result1"
         diffuseConstant="0.5"
         in="result2"
         lighting-color="#ffffff">
        <feDistantLight
           id="feDistantLight2545"
           elevation="10"
           azimuth="225" />
      </feDiffuseLighting>
      <feComposite
         id="feComposite2549"
         in2="SourceGraphic"
         k3="0.8"
         k2="1"
         operator="arithmetic"
         result="result9"
         k1="0"
         k4="0" />
      <feComposite
         id="feComposite2551"
         in="result9"
         operator="in"
         result="result7"
         in2="SourceGraphic" />
    </filter>
    <filter
       id="filter2565"
       style="color-interpolation-filters:sRGB">
      <feColorMatrix
         id="feColorMatrix2555"
         in="SourceGraphic"
         type="luminanceToAlpha"
         result="result2" />
      <feDiffuseLighting
         id="feDiffuseLighting2559"
         surfaceScale="15"
         result="result1"
         diffuseConstant="0.5"
         in="result2"
         lighting-color="#ffffff">
        <feDistantLight
           id="feDistantLight2557"
           elevation="10"
           azimuth="225" />
      </feDiffuseLighting>
      <feComposite
         id="feComposite2561"
         in2="SourceGraphic"
         k3="0.8"
         k2="1"
         operator="arithmetic"
         result="result9"
         k1="0"
         k4="0" />
      <feComposite
         id="feComposite2563"
         in="result9"
         operator="in"
         result="result7"
         in2="SourceGraphic" />
    </filter>
    <filter
       id="filter2577"
       style="color-interpolation-filters:sRGB">
      <feColorMatrix
         id="feColorMatrix2567"
         in="SourceGraphic"
         type="luminanceToAlpha"
         result="result2" />
      <feDiffuseLighting
         id="feDiffuseLighting2571"
         surfaceScale="15"
         result="result1"
         diffuseConstant="0.5"
         in="result2"
         lighting-color="#ffffff">
        <feDistantLight
           id="feDistantLight2569"
           elevation="10"
           azimuth="225" />
      </feDiffuseLighting>
      <feComposite
         id="feComposite2573"
         in2="SourceGraphic"
         k3="0.8"
         k2="1"
         operator="arithmetic"
         result="result9"
         k1="0"
         k4="0" />
      <feComposite
         id="feComposite2575"
         in="result9"
         operator="in"
         result="result7"
         in2="SourceGraphic" />
    </filter>
    <filter
       id="filter2589"
       style="color-interpolation-filters:sRGB">
      <feColorMatrix
         id="feColorMatrix2579"
         in="SourceGraphic"
         type="luminanceToAlpha"
         result="result2" />
      <feDiffuseLighting
         id="feDiffuseLighting2583"
         surfaceScale="15"
         result="result1"
         diffuseConstant="0.5"
         in="result2"
         lighting-color="#ffffff">
        <feDistantLight
           id="feDistantLight2581"
           elevation="10"
           azimuth="225" />
      </feDiffuseLighting>
      <feComposite
         id="feComposite2585"
         in2="SourceGraphic"
         k3="0.8"
         k2="1"
         operator="arithmetic"
         result="result9"
         k1="0"
         k4="0" />
      <feComposite
         id="feComposite2587"
         in="result9"
         operator="in"
         result="result7"
         in2="SourceGraphic" />
    </filter>
    <filter
       id="filter2601"
       style="color-interpolation-filters:sRGB">
      <feColorMatrix
         id="feColorMatrix2591"
         in="SourceGraphic"
         type="luminanceToAlpha"
         result="result2" />
      <feDiffuseLighting
         id="feDiffuseLighting2595"
         surfaceScale="15"
         result="result1"
         diffuseConstant="0.5"
         in="result2"
         lighting-color="#ffffff">
        <feDistantLight
           id="feDistantLight2593"
           elevation="10"
           azimuth="225" />
      </feDiffuseLighting>
      <feComposite
         id="feComposite2597"
         in2="SourceGraphic"
         k3="0.8"
         k2="1"
         operator="arithmetic"
         result="result9"
         k1="0"
         k4="0" />
      <feComposite
         id="feComposite2599"
         in="result9"
         operator="in"
         result="result7"
         in2="SourceGraphic" />
    </filter>
    <filter
       id="filter2613"
       style="color-interpolation-filters:sRGB">
      <feColorMatrix
         id="feColorMatrix2603"
         in="SourceGraphic"
         type="luminanceToAlpha"
         result="result2" />
      <feDiffuseLighting
         id="feDiffuseLighting2607"
         surfaceScale="15"
         result="result1"
         diffuseConstant="0.5"
         in="result2"
         lighting-color="#ffffff">
        <feDistantLight
           id="feDistantLight2605"
           elevation="10"
           azimuth="225" />
      </feDiffuseLighting>
      <feComposite
         id="feComposite2609"
         in2="SourceGraphic"
         k3="0.8"
         k2="1"
         operator="arithmetic"
         result="result9"
         k1="0"
         k4="0" />
      <feComposite
         id="feComposite2611"
         in="result9"
         operator="in"
         result="result7"
         in2="SourceGraphic" />
    </filter>
    <filter
       id="filter2625"
       style="color-interpolation-filters:sRGB">
      <feColorMatrix
         id="feColorMatrix2615"
         in="SourceGraphic"
         type="luminanceToAlpha"
         result="result2" />
      <feDiffuseLighting
         id="feDiffuseLighting2619"
         surfaceScale="15"
         result="result1"
         diffuseConstant="0.5"
         in="result2"
         lighting-color="#ffffff">
        <feDistantLight
           id="feDistantLight2617"
           elevation="10"
           azimuth="225" />
      </feDiffuseLighting>
      <feComposite
         id="feComposite2621"
         in2="SourceGraphic"
         k3="0.8"
         k2="1"
         operator="arithmetic"
         result="result9"
         k1="0"
         k4="0" />
      <feComposite
         id="feComposite2623"
         in="result9"
         operator="in"
         result="result7"
         in2="SourceGraphic" />
    </filter>
    <filter
       id="filter2637"
       style="color-interpolation-filters:sRGB">
      <feColorMatrix
         id="feColorMatrix2627"
         in="SourceGraphic"
         type="luminanceToAlpha"
         result="result2" />
      <feDiffuseLighting
         id="feDiffuseLighting2631"
         surfaceScale="15"
         result="result1"
         diffuseConstant="0.5"
         in="result2"
         lighting-color="#ffffff">
        <feDistantLight
           id="feDistantLight2629"
           elevation="10"
           azimuth="225" />
      </feDiffuseLighting>
      <feComposite
         id="feComposite2633"
         in2="SourceGraphic"
         k3="0.8"
         k2="1"
         operator="arithmetic"
         result="result9"
         k1="0"
         k4="0" />
      <feComposite
         id="feComposite2635"
         in="result9"
         operator="in"
         result="result7"
         in2="SourceGraphic" />
    </filter>
    <filter
       style="color-interpolation-filters:sRGB"
       id="filter4717">
      <feTurbulence
         numOctaves="5"
         baseFrequency="0.4"
         id="feTurbulence4693" />
      <feConvolveMatrix
         order="5 5"
         kernelMatrix="-4 0 0 0 -4 0 -2 0 -2 0 0 0 -10 0 0 0 -2 0 -2 0 -4 0 0 0 -4 "
         targetX="2"
         targetY="2"
         id="feConvolveMatrix4695" />
      <feConvolveMatrix
         order="3 3"
         kernelMatrix="2 0 2 0 -5 0 2 0 2 "
         targetX="1"
         targetY="1"
         id="feConvolveMatrix4697" />
      <feColorMatrix
         type="saturate"
         result="result1"
         id="feColorMatrix4699" />
      <feComposite
         in2="SourceGraphic"
         operator="arithmetic"
         k1="1.5"
         k2="0.5"
         k3="0.5"
         result="result2"
         id="feComposite4701"
         k4="0" />
      <feBlend
         mode="normal"
         in2="result1"
         result="result4"
         id="feBlend4703" />
      <feColorMatrix
         type="luminanceToAlpha"
         id="feColorMatrix4705" />
      <feDiffuseLighting
         surfaceScale="10"
         diffuseConstant="1"
         result="result3"
         id="feDiffuseLighting4709">
        <feDistantLight
           azimuth="180"
           elevation="35"
           id="feDistantLight4707" />
      </feDiffuseLighting>
      <feComposite
         in2="result4"
         operator="arithmetic"
         k1="1.5"
         k3="0.5"
         result="result5"
         id="feComposite4711"
         k2="0"
         k4="0" />
      <feBlend
         mode="normal"
         in2="result3"
         result="result6"
         id="feBlend4713" />
      <feComposite
         in2="SourceGraphic"
         operator="in"
         id="feComposite4715" />
    </filter>
  </defs>
  <metadata
     id="metadata5">
    <rdf:RDF>
      <cc:Work
         rdf:about="">
        <dc:format>image/svg+xml</dc:format>
        <dc:type
           rdf:resource="http://purl.org/dc/dcmitype/StillImage" />
        <dc:title></dc:title>
      </cc:Work>
    </rdf:RDF>
  </metadata>
  <path
     style="opacity:1;fill:#d9a500;fill-opacity:1;stroke:none;stroke-width:0.15733831;stroke-linecap:round;stroke-linejoin:round;stroke-miterlimit:4;stroke-dasharray:none;stroke-opacity:1;paint-order:stroke fill markers;"
     d="M 7.9072138,0.25284529 A 4.042452,3.9422252 0 0 0 3.8650833,4.1947249 4.042452,3.9422252 0 0 0 7.9072138,8.1371266 4.042452,3.9422252 0 0 0 11.949861,4.1947249 4.042452,3.9422252 0 0 0 7.9072138,0.25284529 Z m 0,0.80150011 A 3.2406431,3.1738255 0 0 1 11.147843,4.2283149 3.2406431,3.1738255 0 0 1 7.9072138,7.4022858 3.2406431,3.1738255 0 0 1 4.6665848,4.2283149 3.2406431,3.1738255 0 0 1 7.9072138,1.0543454 Z"
     id="path21" />
  <ellipse
     style="opacity:1;fill:#2d4300;fill-opacity:1;stroke:none;stroke-width:0.15513147;stroke-linecap:round;stroke-linejoin:round;stroke-miterlimit:4;stroke-dasharray:none;stroke-opacity:1;paint-order:stroke fill markers;"
     id="path26"
     cx="7.8955522"
     cy="4.2316084"
     rx="3.1890967"
     ry="3.1186101" />
  <path
     style="fill:#000000;fill-opacity:1;stroke:#ffd42a;stroke-width:0.26520124px;stroke-linecap:round;stroke-linejoin:miter;stroke-opacity:1;"
     d="m 12.153327,5.4261176 28.771585,-0.01103"
     id="path32" />
  <path
     style="fill:#000000;fill-opacity:1;stroke:#ffd42a;stroke-width:0.26671615px;stroke-linecap:round;stroke-linejoin:miter;stroke-opacity:1;"
     d="m 11.845379,6.4835972 29.078987,-0.01103"
     id="path32-5" />
  <path
     style="fill:#d9a500;fill-opacity:1;stroke:#ffcc00;stroke-width:0.27004772px;stroke-linecap:round;stroke-linejoin:miter;stroke-opacity:1;"
     d="m 0.1406637,5.4117246 3.5314452,0.0177"
     id="path81" />
  <path
     style="fill:#d9a500;fill-opacity:1;stroke:#ffcc00;stroke-width:0.2705434px;stroke-linecap:round;stroke-linejoin:miter;stroke-opacity:1;"
     d="m 0.14129824,6.5108022 3.76409276,0.006"
     id="path81-8" />
  <path
     style="opacity:1;fill:#f9bd00;fill-opacity:1;stroke:#ffcc00;stroke-width:0.13229166;stroke-linecap:round;stroke-linejoin:round;stroke-miterlimit:4;stroke-dasharray:none;stroke-opacity:1;paint-order:stroke fill markers;"
     d="m 7.9616453,2.6864255 c -0.1502061,0 -0.3114366,0.0344 -0.4836914,0.10335 -0.1694987,0.0675 -0.2542479,0.1605404 -0.2542479,0.2790604 0,0.0882 0.039963,0.15709 0.1198893,0.2067 0.059256,0.0386 0.1391817,0.0579 0.2397786,0.0579 0.2384005,0 0.441661,-0.0489 0.6097818,-0.14676 0.106109,-0.062 0.1591635,-0.14607 0.1591635,-0.25218 0,-0.0758 -0.03514,-0.1357404 -0.10542,-0.1798404 -0.07028,-0.0455 -0.1653646,-0.0682 -0.2852539,-0.0682 z m 0.2955893,0.7772099 c -0.096463,0 -0.2328886,0.0207 -0.4092773,0.062 -0.176389,0.0413 -0.3417536,0.0916 -0.4960938,0.15089 -0.1116211,0.0427 -0.1674318,0.10749 -0.1674318,0.1943 0,0.072999 0.042719,0.1281595 0.1281576,0.1653695 0.068902,0.0303 0.107487,0.0737 0.1157552,0.13022 0.00276,0.0207 0.00689,0.0937 0.012402,0.21911 0.00689,0.1240185 0.010336,0.2087685 0.010336,0.2542485 0,0.1419404 -0.00896,0.2487404 -0.026872,0.3203904 -0.017914,0.0717 -0.048231,0.1233404 -0.09095,0.1550304 -0.062012,0.0455 -0.1005967,0.0786 -0.1157552,0.0992 -0.015159,0.0207 -0.022737,0.0496 -0.022737,0.0868 0,0.0441 0.014469,0.0834 0.043408,0.11782 0.030317,0.0344 0.069591,0.0586 0.1178224,0.0724 0.1419379,0.0386 0.3341741,0.0579 0.5767089,0.0579 0.4506185,0 0.6759278,-0.0889 0.6759278,-0.2666506 0,-0.0331 -0.00758,-0.0599 -0.022738,-0.0806 -0.01378,-0.022 -0.04203,-0.0482 -0.084749,-0.0786 -0.052366,-0.0372 -0.087506,-0.0779 -0.1054201,-0.121959 C 8.3791923,4.9574046 8.3709233,4.887824 8.3709233,4.792734 V 3.5917754 c 0,-0.0854 -0.037896,-0.12816 -0.113688,-0.12816 z"
     id="rect98" />
  <path
     style="opacity:1;fill:#ffd42a;fill-opacity:1;stroke:#ffcc00;stroke-width:0.13229166;stroke-linecap:round;stroke-linejoin:round;stroke-miterlimit:4;stroke-dasharray:none;stroke-opacity:1;paint-order:stroke fill markers;"
     d="m 21.307994,2.1309185 c -0.37896,0 -0.67386,0.10955 -0.8847,0.3286596 -0.209462,0.2177304 -0.314193,0.5195208 -0.314193,0.9053708 0,0.3817195 0.104731,0.682819 0.314193,0.903299 0.21084,0.2191085 0.50574,0.3286685 0.8847,0.3286685 0.381717,0 0.676617,-0.10956 0.884701,-0.3286685 0.209462,-0.22048 0.314193,-0.5215795 0.314193,-0.903299 0,-0.3831 -0.104731,-0.6842004 -0.314193,-0.9033008 C 21.983233,2.2411585 21.688333,2.1309185 21.307994,2.1309185 Z m 0,0.51883 c 0.0689,0 0.130225,0.0117 0.183968,0.0351 0.05374,0.022 0.101975,0.062 0.144695,0.11989 0.03996,0.0551 0.07097,0.1288404 0.09302,0.2211704 0.02343,0.0909 0.03514,0.20533 0.03514,0.34313 0,0.1474495 -0.01102,0.2632095 -0.03307,0.3472695 -0.02205,0.0827 -0.05443,0.15365 -0.09715,0.2129095 -0.03583,0.0496 -0.08406,0.0868 -0.144695,0.11162 -0.05926,0.0248 -0.117822,0.0372 -0.175699,0.0372 -0.07028,0 -0.134359,-0.0124 -0.192237,-0.0372 -0.05788,-0.0248 -0.106109,-0.0641 -0.144694,-0.11783 -0.03721,-0.052399 -0.06752,-0.1219495 -0.09095,-0.2087695 -0.02343,-0.0882 -0.03514,-0.20326 -0.03514,-0.3451995 0,-0.14193 0.0124,-0.25976 0.03721,-0.35346 0.0248,-0.0937 0.05788,-0.1674404 0.09922,-0.2211804 0.0441,-0.0565 0.09233,-0.0944 0.144695,-0.11369 0.05237,-0.0207 0.110932,-0.031 0.175699,-0.031 z"
     id="rect930" />
  <path
     style="opacity:1;fill:#ffd42a;fill-opacity:1;stroke:#ffcc00;stroke-width:0.13229166;stroke-linecap:round;stroke-linejoin:round;stroke-miterlimit:4;stroke-dasharray:none;stroke-opacity:1;paint-order:stroke fill markers;"
     d="m 31.755697,1.6254416 c -0.162608,0 -0.323839,0.0145 -0.483691,0.0434 -0.159853,0.0276 -0.275608,0.0517 -0.347266,0.0724 v 0.56017 h 0.06201 c 0.108865,-0.0482 0.220486,-0.0875 0.334863,-0.11782 0.114377,-0.0317 0.214285,-0.0475 0.299723,-0.0475 0.188791,0 0.33004,0.0248 0.423747,0.0744 0.09509,0.0482 0.142627,0.1364305 0.142627,0.2645805 v 0.0124 c -0.209462,0.0138 -0.405143,0.0331 -0.587044,0.0579 -0.181901,0.0248 -0.338309,0.0689 -0.469222,0.1322894 -0.129536,0.062 -0.228755,0.14608 -0.297657,0.2521904 -0.0689,0.1061 -0.103352,0.24529 -0.103352,0.417541 0,0.2094595 0.06752,0.3830985 0.202571,0.5208985 0.136426,0.1377995 0.307303,0.2067095 0.51263,0.2067095 0.110244,0 0.195682,-0.008 0.256316,-0.0248 0.06201,-0.0165 0.125401,-0.0406 0.190169,-0.0723 0.06615,-0.0331 0.118511,-0.066099 0.157096,-0.099199 0.03996,-0.0331 0.08475,-0.0703 0.134359,-0.11162 v 0.24598 h 0.719336 V 2.4338321 c 0,-0.2728505 -0.09164,-0.4754205 -0.274919,-0.6077105 -0.181901,-0.13367 -0.472667,-0.20051 -0.872298,-0.20051 z m 0.427881,1.2981103 v 0.4837005 c -0.05374,0.0524 -0.113688,0.093 -0.179834,0.12195 -0.06615,0.0289 -0.130914,0.0434 -0.194303,0.0434 -0.114378,0 -0.201194,-0.02 -0.26045,-0.0599 -0.05788,-0.0414 -0.08682,-0.11645 -0.08682,-0.2253095 0,-0.0744 0.01722,-0.133671 0.05168,-0.177771 0.03583,-0.0455 0.08544,-0.0792 0.148828,-0.10129 0.07304,-0.0262 0.14745,-0.0434 0.223242,-0.0517 0.07579,-0.01 0.175012,-0.0207 0.297657,-0.0331 z"
     id="rect951" />
  <path
     style="opacity:1;fill:#ffd42a;fill-opacity:1;stroke:#ffcc00;stroke-width:0.13229166;stroke-linecap:round;stroke-linejoin:round;stroke-miterlimit:4;stroke-dasharray:none;stroke-opacity:1;paint-order:stroke fill markers;"
     d="m 16.305188,1.3648709 c -0.21084,0 -0.381028,0.039963 -0.510563,0.1198894 -0.128158,0.078548 -0.237023,0.2108398 -0.326595,0.3968749 -0.02343,0.049609 -0.05099,0.107487 -0.08268,0.1736328 -0.03032,0.066146 -0.05719,0.1233345 -0.08062,0.1715656 -0.08268,0.1639865 -0.15434,0.2700955 -0.214974,0.3183265 -0.05926,0.04823 -0.149517,0.0751 -0.270784,0.08061 V 1.371072 h -0.773077 v 3.0778464 h 0.773079 V 3.2066189 h 0.194303 l 0.824756,1.2422995 H 16.75994 L 15.689205,2.8676219 c 0.04134,-0.02343 0.08544,-0.06821 0.132292,-0.1343584 0.04823,-0.06752 0.09922,-0.1660544 0.152962,-0.2955904 0.06752,-0.162608 0.13367,-0.270784 0.198437,-0.3245275 0.06615,-0.055121 0.143316,-0.082682 0.231511,-0.082682 h 0.177767 V 1.371072 c -0.02481,0 -0.05994,-6.89e-4 -0.10542,-0.00207 -0.04547,-0.00276 -0.102664,-0.00413 -0.171566,-0.00413 z"
     id="rect3778" />
  <path
     style="opacity:1;fill:#ffd42a;fill-opacity:1;stroke:#ffcc00;stroke-width:0.13229166;stroke-linecap:round;stroke-linejoin:round;stroke-miterlimit:4;stroke-dasharray:none;stroke-opacity:1;paint-order:stroke fill markers;"
     d="m 17.353447,2.1590598 v 0.5043627 h 0.719336 v 1.8169409 h 0.72347 V 2.6634225 h 0.719336 V 2.1590598 Z"
     id="rect3785" />
  <path
     style="opacity:1;fill:#ffd42a;fill-opacity:1;stroke:#ffcc00;stroke-width:0.13229166;stroke-linecap:round;stroke-linejoin:round;stroke-miterlimit:4;stroke-dasharray:none;stroke-opacity:1;paint-order:stroke fill markers;"
     d="m 24.158733,2.2771786 v 2.3213038 h 1.27124 c 0.143316,0 0.266651,-0.0124 0.370003,-0.03721 0.104731,-0.02618 0.20395,-0.07579 0.297657,-0.1488275 0.07441,-0.05788 0.133669,-0.130224 0.177767,-0.217041 0.0441,-0.08682 0.06614,-0.186035 0.06614,-0.2976555 0,-0.15434 -0.04272,-0.279053 -0.128157,-0.374137 -0.08406,-0.09646 -0.190169,-0.1605415 -0.318327,-0.1922365 v -0.02274 c 0.09371,-0.04547 0.171566,-0.110932 0.233577,-0.19637 0.06201,-0.08544 0.09302,-0.186035 0.09302,-0.3017914 0,-0.100596 -0.01998,-0.187413 -0.05994,-0.2604484 -0.03996,-0.07304 -0.100596,-0.131603 -0.181901,-0.1757 -0.07717,-0.04272 -0.155718,-0.069591 -0.235644,-0.080621 -0.07993,-0.01102 -0.204639,-0.01654 -0.374137,-0.01654 z m 0.717269,0.4630209 h 0.299723 c 0.112999,0 0.194992,0.01723 0.24598,0.05168 0.05237,0.03445 0.07855,0.09646 0.07855,0.1860354 0,0.07028 -0.02687,0.125401 -0.08062,0.165365 -0.05374,0.03996 -0.130914,0.05994 -0.231511,0.05994 h -0.312125 z m 0,0.8619619 h 0.390674 c 0.111621,0 0.195681,0.02067 0.252181,0.06201 0.0565,0.03996 0.08475,0.110243 0.08475,0.21084 0,0.07993 -0.02894,0.1433155 -0.08682,0.1901685 -0.0565,0.04547 -0.135736,0.06821 -0.237711,0.06821 H 24.876 Z"
     id="rect3792" />
  <path
     style="opacity:1;fill:#ffd42a;fill-opacity:1;stroke:#ffcc00;stroke-width:0.13229166;stroke-linecap:round;stroke-linejoin:round;stroke-miterlimit:4;stroke-dasharray:none;stroke-opacity:1;paint-order:stroke fill markers;"
     d="M 27.993385,0.41889439 V 1.3201315 c 0,0.1254013 0.0186,0.2335773 0.05581,0.3245278 0.03859,0.090951 0.09164,0.1646756 0.159163,0.2211752 0.06752,0.059256 0.146072,0.1019747 0.235645,0.1281576 0.09095,0.026183 0.188791,0.039274 0.293522,0.039274 0.117133,0 0.233577,-0.00896 0.349333,-0.026872 0.117133,-0.019293 0.225998,-0.040652 0.326595,-0.064079 v 0.7978844 h 0.72347 V 0.41889439 h -0.72347 V 1.485496 c -0.03032,0.00551 -0.06959,0.010335 -0.117823,0.014469 -0.04823,0.00276 -0.08682,0.00413 -0.115755,0.00413 -0.107487,0 -0.191547,-0.012402 -0.252181,-0.037207 -0.05926,-0.024805 -0.104042,-0.060633 -0.134359,-0.107487 -0.03169,-0.049609 -0.05168,-0.106798 -0.05994,-0.1715656 -0.0083,-0.064768 -0.0124,-0.144694 -0.0124,-0.23977867 V 0.41889439 Z"
     id="rect3799" />
  <path
     style="opacity:1;fill:#ffd42a;fill-opacity:1;stroke:#ffcc00;stroke-width:0.13229166;stroke-linecap:round;stroke-linejoin:round;stroke-miterlimit:4;stroke-dasharray:none;stroke-opacity:1;paint-order:stroke fill markers;"
     d="m 37.492312,1.6262462 c -0.391363,0 -0.69591,0.1129993 -0.91364,0.3389974 -0.21773,0.2259983 -0.326595,0.5284775 -0.326595,0.9074393 0,0.387228 0.116444,0.6855725 0.349333,0.8950345 0.234266,0.2094615 0.570508,0.3141915 1.008724,0.3141915 0.119889,0 0.221175,-0.0062 0.303857,-0.0186 0.08406,-0.01102 0.165365,-0.02687 0.243913,-0.04754 0.08544,-0.02067 0.152273,-0.04065 0.200504,-0.05995 0.04961,-0.02067 0.104043,-0.04272 0.163298,-0.066149 v -0.597375 h -0.07648 c -0.03169,0.02343 -0.07304,0.0503 -0.124024,0.08061 -0.04961,0.030319 -0.104041,0.058569 -0.163297,0.084749 -0.06752,0.03032 -0.141938,0.05512 -0.223242,0.07441 -0.0813,0.01792 -0.163987,0.02687 -0.248047,0.02687 -0.09784,0 -0.188102,-0.009 -0.270785,-0.02687 -0.08268,-0.01929 -0.155029,-0.0503 -0.217041,-0.09302 -0.06339,-0.04272 -0.114377,-0.09991 -0.152962,-0.1715655 -0.03859,-0.07304 -0.06132,-0.163298 -0.06821,-0.270785 h 1.585433 V 2.7362455 c 0,-0.3569124 -0.08957,-0.6311424 -0.268717,-0.8226896 -0.179149,-0.19154 -0.446489,-0.2873139 -0.802022,-0.2873137 z m -0.05581,0.465088 c 0.137804,0 0.239779,0.039963 0.305924,0.1198893 0.06752,0.079926 0.103353,0.1963706 0.107487,0.3493326 h -0.874365 c 0.0083,-0.144694 0.05168,-0.259071 0.130225,-0.3431315 0.07993,-0.08406 0.190169,-0.1260904 0.330729,-0.1260904 z"
     id="rect3806" />
  <path
     style="opacity:1;fill:#ffd42a;fill-opacity:1;stroke:#ffcc00;stroke-width:0.13229166;stroke-linecap:round;stroke-linejoin:round;stroke-miterlimit:4;stroke-dasharray:none;stroke-opacity:1;paint-order:stroke fill markers;"
     d="M 33.496424,0.88474973 V 1.3891118 h 0.719336 v 1.8169431 h 0.72347 V 1.3891118 h 0.719336 V 0.88474973 Z"
     id="rect3785-7" />
  <text
     xml:space="preserve"
     style="font-style:normal;font-variant:normal;font-weight:normal;font-stretch:normal;font-size:4.23333216px;line-height:1.25;font-family:Tahoma;-inkscape-font-specification:Tahoma;letter-spacing:0px;word-spacing:0px;fill:#ffff00;fill-opacity:1;stroke:none;stroke-width:0.26458326;"
     x="22.442457"
     y="10.428289"
     id="text3834"><tspan
       id="tspan3832"
       x="22.442457"
       y="10.428289"
       style="font-style:normal;font-variant:normal;font-weight:bold;font-stretch:normal;font-family:Tahoma;-inkscape-font-specification:'Tahoma Bold';fill:#ffff00;stroke-width:0.26458326;">0</tspan></text>
</svg>
