<?xml version="1.0" encoding="UTF-8" standalone="no"?>
<svg
   xmlns:dc="http://purl.org/dc/elements/1.1/"
   xmlns:cc="http://creativecommons.org/ns#"
   xmlns:rdf="http://www.w3.org/1999/02/22-rdf-syntax-ns#"
   xmlns:svg="http://www.w3.org/2000/svg"
   xmlns="http://www.w3.org/2000/svg"
   xmlns:xlink="http://www.w3.org/1999/xlink"
   width="140"
   height="320"
   viewBox="0 0 140 320"
   version="1.1"
   id="svg7393">
  <defs
     id="defs7387">
    <linearGradient
       gradientTransform="matrix(0.26458333,0,0,0.26458333,0.47174015,259.39565)"
       gradientUnits="userSpaceOnUse"
       y2="11.500001"
       x2="54.25"
       y1="50.644444"
       x1="96.253662"
       id="linearGradient6585"
       xlink:href="#linearGradient6583" />
    <linearGradient
       id="linearGradient6583">
      <stop
         id="stop6579"
         offset="0"
         style="stop-color:#86d800;stop-opacity:1;" />
      <stop
         id="stop6581"
         offset="1"
         style="stop-color:#86d800;stop-opacity:0;" />
    </linearGradient>
    <linearGradient
       gradientTransform="matrix(0.26458333,0,0,0.26458333,0.47174015,259.39565)"
       gradientUnits="userSpaceOnUse"
       y2="56.5"
       x2="114.75"
       y1="22"
       x1="103.5"
       id="linearGradient6595"
       xlink:href="#linearGradient6583" />
    <linearGradient
       gradientTransform="matrix(0.26458333,0,0,0.26458333,53.979017,271.53714)"
       gradientUnits="userSpaceOnUse"
       y2="18.477833"
       x2="-157.86159"
       y1="-29.428652"
       x1="-193.39371"
       id="linearGradient7801"
       xlink:href="#linearGradient7799" />
    <linearGradient
       id="linearGradient7799">
      <stop
         id="stop7795"
         offset="0"
         style="stop-color:#cccccc;stop-opacity:1;" />
      <stop
         id="stop7797"
         offset="1"
         style="stop-color:#cccccc;stop-opacity:0;" />
    </linearGradient>
    <filter
       id="filter282"
       style="color-interpolation-filters:sRGB">
      <feColorMatrix
         id="feColorMatrix266"
         in="SourceGraphic"
         type="luminanceToAlpha"
         result="result2" />
      <feSpecularLighting
         id="feSpecularLighting270"
         result="result10"
         specularExponent="10"
         surfaceScale="-15"
         specularConstant="0.5">
        <feDistantLight
           id="feDistantLight268"
           azimuth="225"
           elevation="20" />
      </feSpecularLighting>
      <feDiffuseLighting
         id="feDiffuseLighting274"
         surfaceScale="15"
         diffuseConstant="0.5">
        <feDistantLight
           id="feDistantLight272"
           elevation="20"
           azimuth="225" />
      </feDiffuseLighting>
      <feComposite
         k4="0"
         k1="0"
         id="feComposite276"
         k3="0.5"
         k2="0.5"
         operator="arithmetic"
         in2="result10"
         result="result11" />
      <feComposite
         k4="0"
         k1="0"
         id="feComposite278"
         in2="SourceGraphic"
         k3="1"
         k2="1"
         operator="arithmetic"
         result="result9"
         in="result11" />
      <feComposite
         id="feComposite280"
         in="result9"
         operator="in"
         in2="SourceGraphic" />
    </filter>
    <linearGradient
       gradientTransform="translate(-9.0952774,-0.5703421)"
       gradientUnits="userSpaceOnUse"
       y2="20.759199"
       x2="110.34252"
       y1="49.324905"
       x1="104.52725"
       id="linearGradient3234"
       xlink:href="#linearGradient6583" />
    <linearGradient
       gradientTransform="translate(-32.845277,-4.5703421)"
       gradientUnits="userSpaceOnUse"
       y2="60.167137"
       x2="72.136688"
       y1="23.956221"
       x1="34.199551"
       id="linearGradient3252"
       xlink:href="#linearGradient3250" />
    <linearGradient
       id="linearGradient3250">
      <stop
         id="stop3246"
         offset="0"
         style="stop-color:#c1c1c1;stop-opacity:1;" />
      <stop
         id="stop3248"
         offset="1"
         style="stop-color:#c1c1c1;stop-opacity:0;" />
    </linearGradient>
    <linearGradient
       gradientTransform="translate(-9.0952774,-0.5703421)"
       gradientUnits="userSpaceOnUse"
       y2="-1.3874444"
       x2="21.386816"
       y1="54.473991"
       x1="96.855354"
       id="linearGradient2766"
       xlink:href="#linearGradient2764" />
    <linearGradient
       id="linearGradient2764">
      <stop
         id="stop2760"
         offset="0"
         style="stop-color:#8ce200;stop-opacity:1;" />
      <stop
         id="stop2762"
         offset="1"
         style="stop-color:#8ce200;stop-opacity:0;" />
    </linearGradient>
  </defs>
  <metadata
     id="metadata7390">
    <rdf:RDF>
      <cc:Work
         rdf:about="">
        <dc:format>image/svg+xml</dc:format>
        <dc:type
           rdf:resource="http://purl.org/dc/dcmitype/StillImage" />
        <dc:title></dc:title>
      </cc:Work>
    </rdf:RDF>
  </metadata>
  <g
     id="g3733">
    <ellipse
       style="fill:url(#linearGradient2766);fill-opacity:1;stroke:#000000;stroke-width:0.69319999;stroke-linecap:round;stroke-miterlimit:4;stroke-dasharray:none;stroke-opacity:1;paint-order:stroke fill markers"
       id="path1407"
       cx="69.824791"
       cy="36.225979"
       rx="24.851637"
       ry="25.514547" />
    <g
       id="g2322"
       transform="translate(-9.0952774,-0.5703421)">
      <path
         id="path1440"
         d="m 78.703125,3.4863281 c -6.434714,0.00458 -10.7426,5.9868779 -16.301456,12.9888389 -0.562426,0.708435 -5.573782,-1.842407 -6.034988,1.973921 -0.317387,2.626273 0.993587,3.60884 5.166522,2.656381 2.037701,-0.446711 3.275882,-0.338854 5.387216,-0.612339 3.214735,-0.41641 7.341388,-1.098932 10.640128,-1.104458 3.177748,3.32e-4 6.166554,-0.197735 8.999753,0.166807 2.818227,0.362616 5.481498,1.285862 8.394665,2.030574 1.330056,0.587811 3.540664,1.736751 4.394537,1.097293 2.372948,-1.777083 0.747868,-3.791004 0.644677,-4.145443 -0.202087,-0.694125 -5.013158,-0.688825 -5.279524,-1.37067 C 93.34773,13.668178 91.306179,10.735337 89.133572,8.4556193 86.114232,5.287424 82.503493,3.4904686 78.703125,3.4863281 Z"
         style="fill:#ff6407;fill-opacity:1;stroke:#000000;stroke-width:0.69999999;stroke-linecap:round;stroke-miterlimit:4;stroke-dasharray:none;stroke-opacity:1;paint-order:stroke fill markers" />
      <ellipse
         ry="2.859375"
         rx="2.90625"
         cy="12.890624"
         cx="79.21875"
         id="path2300"
         style="fill:#fee40c;fill-opacity:1;stroke:#000000;stroke-width:0.5;stroke-linecap:round;stroke-miterlimit:4;stroke-dasharray:none;stroke-opacity:1;paint-order:stroke fill markers" />
    </g>
    <path
       style="opacity:1;fill:#ffffff;fill-opacity:1;stroke:#000000;stroke-width:0.70946628;stroke-linecap:round;stroke-miterlimit:4;stroke-dasharray:none;stroke-opacity:1;paint-order:stroke fill markers"
       d="m 69.109883,22.304524 c -5.183197,3.8e-4 -8.423462,0.576886 -9.05331,4.612881 -0.0738,1.978389 -0.02699,2.583193 -0.0033,4.711338 1.74e-4,4.856242 3.996318,8.792926 8.92578,8.792969 4.92946,-4.3e-5 9.38965,-4.632785 9.38982,-9.489028 0.003,-1.523832 -0.0832,-3.396923 -0.0711,-4.678192 -0.36468,-3.042073 -4.00388,-3.950221 -9.18784,-3.949968 z"
       id="path2704" />
    <path
       style="fill:none;stroke:#000000;stroke-width:1px;stroke-linecap:round;stroke-linejoin:miter;stroke-opacity:1"
       d="m 52.572773,43.361164 c 3.1875,4.40625 5.8125,4.3125 5.8125,4.3125 l 22.875,-0.1875 c 3.17655,-0.402246 3.88753,-2.422298 4.875,-4.125"
       id="path2726" />
    <ellipse
       style="opacity:1;fill:#000000;fill-opacity:1;stroke:#000000;stroke-width:0.5;stroke-linecap:round;stroke-miterlimit:4;stroke-dasharray:none;stroke-opacity:1;paint-order:stroke fill markers"
       id="path2730"
       cx="68.823708"
       cy="31.043764"
       rx="1.875"
       ry="1.734375" />
    <path
       style="opacity:1;fill:#f96105;fill-opacity:1;stroke:#000000;stroke-width:0.5;stroke-linecap:round;stroke-miterlimit:4;stroke-dasharray:none;stroke-opacity:0.97493741;paint-order:stroke fill markers"
       d="m 44.750155,37.339319 c -3.146461,2.786433 -2.816365,3.966977 -5.442135,6.498318 -1.148912,1.321902 -3.133538,4.560296 -2.501489,4.560426 0.738619,-0.313095 2.889882,-1.602199 3.166435,-1.873122 1.203759,-1.214306 2.643708,-2.087446 2.913563,-2.382926 1.533559,-1.217157 0.05369,-0.189825 2.479092,-1.273175 -0.272592,-1.429248 -0.575144,-4.291238 -0.615466,-5.529521 z"
       id="path2823" />
    <path
       style="opacity:1;fill:#f96105;fill-opacity:1;stroke:#000000;stroke-width:0.29827616;stroke-linecap:round;stroke-miterlimit:4;stroke-dasharray:none;stroke-opacity:0.97493741;paint-order:stroke fill markers"
       d="m 45.662178,44.117506 c -1.063665,0.171969 -0.921033,1.691332 -1.735543,5.032341 -0.19621,1.027317 0.198379,3.358704 0.50082,3.358801 1.044225,-1.79046 2.069029,-2.831365 2.791737,-4.733229 -0.479487,-0.859946 -1.238273,-3.348553 -1.557014,-3.657913 z"
       id="path2823-4" />
    <path
       style="opacity:1;fill:#837716;fill-opacity:1;stroke:#000000;stroke-width:0.5;stroke-linecap:round;stroke-miterlimit:4;stroke-dasharray:none;stroke-opacity:0.97493741;paint-order:stroke fill markers"
       d="m 44.59027,56.085908 c -1.441476,0.729968 -2.637433,2.815658 -0.369141,3.324219 1.263544,0.958872 2.800051,2.22339 4.123047,1.8125 1.04923,1.8e-5 1.493688,-0.984829 1.494141,-1.814453 0.282753,-1.651732 -3.722496,-2.635579 -5.248047,-3.322266 z"
       id="path3094" />
    <path
       style="opacity:1;fill:url(#linearGradient3252);fill-opacity:1;stroke:#000000;stroke-width:0.65793687;stroke-linecap:round;stroke-miterlimit:4;stroke-dasharray:none;stroke-opacity:0.97493741;paint-order:stroke fill markers"
       d="m 16.733419,24.313521 c 3.360995,9.86133 14.756826,21.577297 22.30799,28.345775 1.749814,2.245029 -0.32096,3.739203 -0.32096,3.739203 C 30.895039,55.210943 15.468356,45.011027 9.9452446,36.510907 -4.7829804,12.216664 2.899807,19.845714 7.1407666,23.600706 c 2.833136,2.508489 6.4638834,1.790538 9.5926524,0.712815 z"
       id="path3103" />
    <path
       style="opacity:1;fill:#d0b530;fill-opacity:1;stroke:#000000;stroke-width:0.5;stroke-linecap:round;stroke-miterlimit:4;stroke-dasharray:none;stroke-opacity:0.97493741;paint-order:stroke fill markers"
       d="m 40.153577,51.054085 c -2.591496,0.639781 -0.781315,0.471144 -0.192898,1.938247 0.630667,1.572445 -0.05855,4.038302 -1.487313,4.006508 -1.471706,-0.03275 -4.826393,-3.008588 -3.948926,0.970264 -0.01756,1.28433 1.931382,2.950174 4.595624,2.496974 2.203865,-0.205274 5.491335,-4.412641 4.290558,-7.492339 -0.95061,-1.698789 -1.8324,-1.919603 -3.257045,-1.919654 z"
       id="path3132" />
    <path
       style="opacity:1;fill:url(#linearGradient3234);fill-opacity:1;stroke:#000000;stroke-width:0.5;stroke-linecap:round;stroke-miterlimit:4;stroke-dasharray:none;stroke-opacity:0.97493741;paint-order:stroke fill markers"
       d="m 94.529723,25.492158 c -2.99994,-0.08718 0.31753,4.429546 0.3125,11.375 -0.0433,4.57168 -2.77448,10.204664 -2.3125,11.375 0.88947,4.375 13.591157,-5.096456 13.249997,-11.3125 -0.35989,-6.557391 -5.48553,-11.4375 -11.249997,-11.4375 z"
       id="path3137" />
    <path
       style="opacity:1;fill:#f8dc11;fill-opacity:1;stroke:#000000;stroke-width:0.5;stroke-linecap:round;stroke-miterlimit:4;stroke-dasharray:none;stroke-opacity:0.97493741;paint-order:stroke fill markers"
       d="m 101.46094,44.864355 c -0.49227,0.286227 0.2857,0.710489 -0.0382,2.998906 -0.3501,2.473421 -1.485476,3.822147 -2.282796,2.923751 -3.212431,-3.619653 0.878836,-7.076362 -0.18448,-7.134943 -2.848201,-0.156914 -3.294451,3.377501 -3.523491,5.102493 -0.0176,1.28433 0.82653,6.154253 4.043201,5.988315 2.203856,-0.205274 3.291806,-1.740766 3.777146,-5.028951 0.0854,-2.220426 -1.07382,-5.313559 -1.79136,-4.849571 z"
       id="path3132-2" />
    <path
       style="fill:none;stroke:#000000;stroke-width:1px;stroke-linecap:butt;stroke-linejoin:miter;stroke-opacity:1"
       d="m 96.512714,31.995089 c 4.787256,3.120371 4.466886,5.0031 0.67678,10.535218"
       id="path3226" />
    <rect
       style="opacity:1;fill:#ffffff;fill-opacity:1;stroke:#000000;stroke-width:0.68047768;stroke-linecap:round;stroke-miterlimit:4;stroke-dasharray:none;stroke-opacity:1;paint-order:stroke fill markers"
       id="rect3244"
       width="3.5624974"
       height="2.906249"
       x="60.221439"
       y="44.215633" />
    <path
       style="opacity:1;fill:#ffc200;fill-opacity:1;stroke:#000000;stroke-width:0.49219194;stroke-linecap:round;stroke-miterlimit:4;stroke-dasharray:none;stroke-opacity:1;paint-order:stroke fill markers"
       d="M 1.4164411,75.753877 V 101.59958 H 139.06097 V 75.753877 Z M 126.39105,76.351533 h 0.92578 c 0.007,0.388889 0.095,0.670139 0.26172,0.84375 0.16666,0.170139 0.41189,0.255859 0.73828,0.255859 0.32986,0 0.57704,-0.08572 0.74023,-0.255859 0.16667,-0.170139 0.25282,-0.451389 0.25977,-0.84375 h 0.92773 c -0.0139,0.520833 -0.17816,0.940321 -0.49414,1.259766 -0.31597,0.319444 -0.7947,0.480468 -1.43359,0.480468 -0.63889,0 -1.11567,-0.161024 -1.43164,-0.480468 -0.31597,-0.319445 -0.48025,-0.738933 -0.49414,-1.259766 z M 12.250426,78.533174 c 0.260417,0 0.502821,0.0204 0.728516,0.05859 0.229166,0.0382 0.440321,0.0855 0.634765,0.144532 0.166667,0.05208 0.338108,0.119357 0.511719,0.199218 0.177083,0.07639 0.349392,0.160157 0.519531,0.253907 v 1.246093 h -0.08203 c -0.09028,-0.08333 -0.207248,-0.184678 -0.349609,-0.302734 -0.142361,-0.118056 -0.316624,-0.235026 -0.521485,-0.349609 -0.197916,-0.107639 -0.411892,-0.196181 -0.644531,-0.265625 -0.232639,-0.06945 -0.503038,-0.103516 -0.808594,-0.103516 -0.329861,0 -0.642361,0.06771 -0.9375,0.203125 -0.295139,0.135417 -0.553169,0.33572 -0.775391,0.599609 -0.21875,0.263889 -0.388238,0.594835 -0.509766,0.994141 -0.1215284,0.399306 -0.1835944,0.849609 -0.1835944,1.349609 0,0.53125 0.06489,0.989584 0.1933604,1.375 0.128472,0.381945 0.303168,0.704861 0.52539,0.96875 0.215278,0.256945 0.470053,0.450087 0.76172,0.582032 0.291667,0.128472 0.599392,0.193359 0.925781,0.193359 0.298611,0 0.574653,-0.03646 0.828125,-0.109375 0.253473,-0.07292 0.479818,-0.16428 0.677735,-0.275391 0.190972,-0.107639 0.355251,-0.217014 0.49414,-0.328125 0.138889,-0.114583 0.248264,-0.213107 0.328125,-0.292968 h 0.07813 v 1.230468 c -0.170139,0.07986 -0.331597,0.155599 -0.484375,0.228516 -0.149305,0.07292 -0.331597,0.143446 -0.546875,0.212891 -0.225694,0.07292 -0.434461,0.129774 -0.628906,0.167968 -0.190972,0.0382 -0.440972,0.05664 -0.75,0.05664 -0.506944,0 -0.97526,-0.08572 -1.402345,-0.255859 -0.423611,-0.170139 -0.788628,-0.42296 -1.0976564,-0.759766 -0.309028,-0.336806 -0.548611,-0.756293 -0.71875,-1.259766 -0.170139,-0.503472 -0.255859,-1.081597 -0.255859,-1.734375 0,-0.649305 0.08095,-1.216579 0.24414,-1.699218 0.166667,-0.482639 0.408638,-0.902127 0.72461,-1.259766 0.3090284,-0.347222 0.6759984,-0.61046 1.0996094,-0.791016 0.423612,-0.184027 0.897571,-0.277343 1.421876,-0.277343 z m 76.228516,0 c 0.260416,0 0.502821,0.0204 0.728511,0.05859 0.22917,0.0382 0.44228,0.0855 0.63672,0.144532 0.16667,0.05208 0.33616,0.119357 0.50977,0.199218 0.17708,0.07639 0.35134,0.160157 0.52148,0.253907 v 1.246093 h -0.084 c -0.0903,-0.08333 -0.20725,-0.184678 -0.34961,-0.302734 -0.14236,-0.118056 -0.31467,-0.235026 -0.51953,-0.349609 -0.19792,-0.107639 -0.41385,-0.196181 -0.64649,-0.265625 -0.232635,-0.06945 -0.501081,-0.103516 -0.806637,-0.103516 -0.329861,0 -0.642361,0.06771 -0.9375,0.203125 -0.295139,0.135417 -0.555121,0.33572 -0.777344,0.599609 -0.21875,0.263889 -0.388237,0.594835 -0.509765,0.994141 -0.121528,0.399306 -0.181641,0.849609 -0.181641,1.349609 0,0.53125 0.06293,0.989584 0.191406,1.375 0.128473,0.381945 0.305122,0.704861 0.527344,0.96875 0.215278,0.256945 0.468099,0.450087 0.759766,0.582032 0.291666,0.128472 0.601345,0.193359 0.927734,0.193359 0.298611,0 0.574653,-0.03646 0.828127,-0.109375 0.25347,-0.07292 0.47786,-0.16428 0.67578,-0.275391 0.19097,-0.107639 0.3572,-0.217014 0.49609,-0.328125 0.13889,-0.114583 0.24827,-0.213107 0.32813,-0.292968 h 0.0781 v 1.230468 c -0.17014,0.07986 -0.33159,0.155599 -0.48437,0.228516 -0.14931,0.07292 -0.3316,0.143446 -0.54688,0.212891 -0.22569,0.07292 -0.43641,0.129774 -0.63086,0.167968 -0.190968,0.0382 -0.440968,0.05664 -0.749996,0.05664 -0.506945,0 -0.973308,-0.08572 -1.400391,-0.255859 -0.423611,-0.170139 -0.790581,-0.42296 -1.099609,-0.759766 -0.309028,-0.336806 -0.548611,-0.756293 -0.71875,-1.259766 -0.170139,-0.503472 -0.25586,-1.081597 -0.25586,-1.734375 0,-0.649305 0.0829,-1.216579 0.246094,-1.699218 0.166667,-0.482639 0.406684,-0.902127 0.722656,-1.259766 0.309028,-0.347222 0.675999,-0.61046 1.09961,-0.791016 0.423611,-0.184027 0.897569,-0.277343 1.421875,-0.277343 z m -66.984375,0.140625 h 1.140625 l 2.103515,4.5625 1.902344,-4.5625 h 1.0625 l -2.8125,6.53125 c -0.118055,0.274305 -0.253038,0.495442 -0.402344,0.662109 -0.145833,0.166667 -0.297309,0.291667 -0.457031,0.375 -0.159722,0.08681 -0.318359,0.144097 -0.474609,0.171875 -0.152778,0.02778 -0.306641,0.04102 -0.462891,0.04102 -0.138889,0 -0.302734,-0.0028 -0.490234,-0.0098 -0.1875,-0.0069 -0.307292,-0.01215 -0.359375,-0.01563 v -0.962891 h 0.07227 c 0.05208,0.0069 0.130209,0.01497 0.234375,0.02539 0.107639,0.0069 0.243056,0.0098 0.40625,0.0098 0.07639,0 0.167318,-0.0028 0.271485,-0.0098 0.104166,-0.01042 0.200304,-0.03646 0.287109,-0.07813 0.100695,-0.04861 0.194445,-0.113498 0.28125,-0.193359 0.09028,-0.08333 0.171224,-0.213542 0.244141,-0.390625 l 0.177734,-0.410157 z m 13.603515,0 h 1.949219 c 0.458333,0 0.848958,0.03884 1.171875,0.115234 0.322917,0.07639 0.606988,0.199002 0.853516,0.369141 0.288194,0.197916 0.51454,0.450303 0.677734,0.755859 0.163195,0.302083 0.244141,0.669054 0.244141,1.099609 0,0.336806 -0.06011,0.654948 -0.181641,0.957032 -0.118055,0.298611 -0.284288,0.553819 -0.496094,0.765625 -0.267361,0.263889 -0.580295,0.464192 -0.941406,0.599609 -0.361111,0.135417 -0.81901,0.203125 -1.371094,0.203125 h -0.875 v 2.890625 h -1.03125 z m 12.542969,0 h 4.597656 v 0.917968 h -3.566406 v 6.837891 h -1.03125 z m 11.291016,0 h 1.140625 l 2.103515,4.5625 1.902344,-4.5625 h 1.0625 l -2.8125,6.53125 c -0.118055,0.274305 -0.253038,0.495442 -0.402344,0.662109 -0.145833,0.166667 -0.297309,0.291667 -0.457031,0.375 -0.159722,0.08681 -0.318359,0.144097 -0.474609,0.171875 -0.152778,0.02778 -0.306641,0.04102 -0.462891,0.04102 -0.138889,0 -0.302734,-0.0028 -0.490234,-0.0098 -0.1875,-0.0069 -0.307292,-0.01215 -0.359375,-0.01563 v -0.962891 h 0.07227 c 0.05208,0.0069 0.130209,0.01497 0.234375,0.02539 0.107639,0.0069 0.243056,0.0098 0.40625,0.0098 0.07639,0 0.167318,-0.0028 0.271485,-0.0098 0.104166,-0.01042 0.200304,-0.03646 0.287109,-0.07813 0.100695,-0.04861 0.194445,-0.113498 0.28125,-0.193359 0.09028,-0.08333 0.171224,-0.213542 0.244141,-0.390625 l 0.177734,-0.410157 z m 12.8125,0 h 6.240234 v 0.917968 h -2.605469 v 6.837891 h -1.03125 v -6.837891 h -2.603515 z m 26.771487,0 h 1.03125 v 3.496093 c 0.40625,-0.01389 0.726776,-0.117621 0.962886,-0.308593 0.23958,-0.190973 0.43468,-0.464627 0.58398,-0.822266 0.0625,-0.15625 0.11741,-0.30447 0.16602,-0.443359 0.0521,-0.142361 0.0937,-0.262153 0.125,-0.359375 0.20833,-0.59375 0.47396,-1.000434 0.79687,-1.222657 0.32292,-0.225694 0.77084,-0.339843 1.34375,-0.339843 h 0.31836 v 0.921875 h -0.26172 c -0.42361,0 -0.72048,0.08333 -0.89062,0.25 -0.17014,0.163194 -0.32639,0.47526 -0.46875,0.933593 -0.14236,0.458334 -0.30143,0.794488 -0.47852,1.009766 -0.17708,0.211806 -0.39062,0.399306 -0.64062,0.5625 l 3.14648,4.078125 h -1.3125 l -2.74023,-3.552734 h -0.650386 v 3.552734 h -1.03125 z m 13.103506,0 h 1.02539 v 6.058593 l 3.45899,-6.058593 h 1.08789 v 7.755859 h -1.02539 v -6.15625 l -3.50586,6.15625 h -1.04102 z m 13.8125,0 h 1.02539 v 6.058593 l 3.45899,-6.058593 h 1.08789 v 7.755859 h -1.02539 v -6.15625 l -3.50586,6.15625 h -1.04102 z m -89.302728,0.886718 v 3.097657 h 0.703125 c 0.416667,0 0.754775,-0.03168 1.011719,-0.09766 0.256945,-0.06944 0.470486,-0.191623 0.640625,-0.365234 0.152778,-0.15625 0.262587,-0.325738 0.332031,-0.509766 0.06945,-0.184027 0.105469,-0.399956 0.105469,-0.646484 0,-0.267361 -0.04687,-0.499349 -0.140625,-0.697266 -0.09028,-0.197916 -0.230469,-0.359375 -0.417969,-0.484375 -0.163194,-0.107639 -0.353515,-0.185329 -0.572265,-0.230468 -0.215278,-0.04514 -0.483724,-0.06641 -0.806641,-0.06641 z M 3.250425,87.650361 H 137.03753 V 99.849578 H 3.250425 Z"
       id="rect3478" />
    <path
       style="opacity:1;fill:#ffc200;fill-opacity:1;stroke:#ffcc00;stroke-width:0.5789535;stroke-linecap:round;stroke-linejoin:round;stroke-miterlimit:4;stroke-dasharray:none;stroke-opacity:1;paint-order:stroke fill markers"
       d="m 70.457962,88.306497 c -0.717014,0 -1.427951,0.0638 -2.132812,0.19141 -0.704861,0.12152 -1.215278,0.22721 -1.53125,0.31836 v 2.4707 h 0.273437 c 0.480035,-0.21267 0.972222,-0.38585 1.476563,-0.51953 0.50434,-0.13976 0.945529,-0.20899 1.322265,-0.20899 0.832466,0 1.455947,0.10938 1.869141,0.32813 0.419271,0.21267 0.628906,0.60091 0.628906,1.16601 v 0.0547 c -0.923611,0.0608 -1.78776,0.14649 -2.589844,0.25586 -0.802083,0.10938 -1.491102,0.30252 -2.068359,0.58203 -0.57118,0.27344 -1.00868,0.6454 -1.3125,1.11328 -0.303819,0.46789 -0.455078,1.0803 -0.455078,1.839851 0,0.92361 0.297092,1.68923 0.892578,2.29687 0.601563,0.60764 1.354384,0.91211 2.259766,0.91211 0.486111,0 0.863498,-0.0365 1.130859,-0.10937 0.273438,-0.0729 0.5523,-0.17861 0.837891,-0.31836 0.291666,-0.14584 0.52322,-0.29167 0.693359,-0.4375 0.176215,-0.14584 0.373047,-0.3099 0.591797,-0.49219 v 1.08398 h 3.171875 v -6.962891 c 0,-1.20312 -0.402778,-2.09635 -1.210938,-2.67968 -0.802083,-0.58941 -2.085503,-0.88477 -3.847656,-0.88477 z m -32.046875,0.29102 v 3.97461 c 0,0.55295 0.08203,1.03059 0.246094,1.43164 0.170139,0.40104 0.405382,0.72547 0.703125,0.97461 0.297743,0.26128 0.644097,0.449 1.039062,0.564451 0.401042,0.11545 0.831164,0.17383 1.292969,0.17383 0.516493,0 1.030599,-0.0402 1.541016,-0.11914 0.516493,-0.0851 0.995877,-0.177961 1.439453,-0.281251 v 3.517571 h 3.191406 V 88.597517 h -3.191406 v 4.70312 c -0.133681,0.0243 -0.306858,0.0462 -0.519531,0.0645 -0.212674,0.0122 -0.382162,0.0176 -0.509766,0.0176 -0.473958,0 -0.843967,-0.0547 -1.111328,-0.16406 -0.261285,-0.10937 -0.460069,-0.26606 -0.59375,-0.47266 -0.139757,-0.21875 -0.227214,-0.47222 -0.263672,-0.75781 -0.03646,-0.28559 -0.05469,-0.63737 -0.05469,-1.05664 v -2.33398 z m 54.761716,0 v 2.22461 h 3.171881 v 8.011711 h 3.18945 V 90.822127 H 102.706 v -2.22461 z m -20.828122,5.43359 v 2.132811 c -0.236979,0.23091 -0.501302,0.40951 -0.792969,0.53711 -0.291666,0.12761 -0.575955,0.19141 -0.855468,0.19141 -0.504341,0 -0.887153,-0.0875 -1.148438,-0.26367 -0.255208,-0.1823 -0.382812,-0.51411 -0.382812,-0.99414 0,-0.328131 0.07465,-0.588761 0.226562,-0.783211 0.157986,-0.20052 0.376736,-0.35004 0.65625,-0.44726 0.322049,-0.11545 0.650174,-0.19206 0.984375,-0.22852 0.334201,-0.0425 0.771701,-0.0898 1.3125,-0.14453 z"
       id="rect3608" />
  </g>
</svg>
